<?xml version="1.0" standalone="no"?>
<!DOCTYPE svg PUBLIC "-//W3C//DTD SVG 20010904//EN"
 "http://www.w3.org/TR/2001/REC-SVG-20010904/DTD/svg10.dtd">
<svg version="1.0" xmlns="http://www.w3.org/2000/svg"
 width="1408.000000pt" height="1408.000000pt" viewBox="0 0 1408.000000 1408.000000"
 preserveAspectRatio="xMidYMid meet">
<metadata>
Created by potrace 1.14, written by Peter Selinger 2001-2017
</metadata>
<g transform="translate(0.000000,1408.000000) scale(0.100000,-0.100000)"
fill="#000000" stroke="none">
<path d="M1613 9092 l-63 -3 0 -1624 0 -1625 68 0 c63 -1 385 1 407 1 6 0 51
0 100 0 50 0 101 0 115 0 21 0 85 0 270 0 8 0 47 0 85 0 91 -1 263 8 295 14
14 3 45 8 70 11 25 3 52 7 60 9 8 2 29 7 45 10 123 21 296 80 428 146 75 37
277 169 277 181 0 4 5 8 12 8 11 0 194 182 232 231 97 126 193 308 246 468 38
116 67 257 74 357 1 28 5 55 7 60 11 23 -1 335 -17 414 -2 14 -6 36 -9 50 -13
70 -17 89 -32 140 -18 65 -61 184 -78 220 -53 107 -75 147 -132 234 -59 89
-210 255 -298 327 -33 27 -165 116 -205 138 -186 102 -341 158 -545 196 -86
16 -147 23 -250 31 -83 6 -1053 11 -1162 6z m1121 -596 c105 -7 135 -12 228
-35 165 -42 347 -150 447 -265 9 -10 27 -30 40 -45 35 -39 114 -178 143 -251
23 -60 47 -149 64 -245 19 -107 5 -420 -23 -485 -3 -8 -6 -18 -5 -22 6 -28
-104 -269 -140 -308 -10 -11 -18 -22 -18 -25 0 -12 -122 -140 -169 -178 -102
-82 -284 -164 -405 -183 -21 -3 -48 -8 -60 -11 -11 -3 -153 -8 -313 -10 l-293
-5 -1 44 c0 56 0 1965 0 2000 1 22 6 27 29 30 39 4 380 0 476 -6z"/>
<path d="M4828 9092 c-37 -2 -48 -7 -49 -20 -5 -97 -1 -3224 4 -3229 4 -3 30
-5 59 -4 29 1 80 1 113 0 33 -1 78 -1 100 0 22 1 51 2 65 2 40 0 254 0 265 0
6 0 51 0 100 0 50 0 99 0 110 0 11 0 49 0 85 -1 36 -1 70 -1 75 0 6 1 15 1 20
0 6 -1 62 -1 125 0 63 0 131 0 150 0 130 -4 180 -4 180 0 0 3 15 5 33 4 87 -5
123 -6 132 -4 6 1 15 1 20 0 6 -1 62 -1 125 0 63 0 131 0 150 0 130 -4 180 -4
180 0 0 3 21 5 47 5 l47 0 0 290 1 290 -756 3 -755 2 1 373 0 372 711 0 710 0
0 295 -1 295 -700 1 c-385 1 -705 2 -711 3 -7 1 -10 113 -8 364 1 199 2 364 3
367 0 3 331 4 733 3 403 -1 742 0 753 2 19 4 20 12 20 289 0 157 -3 288 -7
291 -6 6 -2039 13 -2130 7z"/>
<path d="M7143 9092 c-18 -2 -33 -4 -33 -6 0 -1 39 -114 86 -252 47 -137 99
-289 115 -339 17 -49 33 -97 36 -105 3 -8 7 -19 9 -25 1 -5 39 -116 84 -245
44 -129 110 -320 146 -425 35 -104 96 -282 135 -395 39 -113 72 -209 73 -215
2 -5 6 -17 9 -25 3 -8 17 -49 31 -90 14 -41 66 -194 116 -340 51 -146 94 -274
97 -285 2 -11 9 -29 13 -40 10 -22 85 -241 131 -380 l29 -90 108 2 c59 1 121
3 137 3 40 2 254 1 330 -1 33 -1 74 -1 90 -1 17 1 50 2 75 2 l45 0 24 68 c12
37 25 74 28 82 4 8 7 17 8 20 1 3 4 12 7 20 21 61 50 147 52 155 2 6 6 17 9
25 3 8 22 65 42 125 20 61 41 119 45 130 5 11 49 139 99 285 151 447 163 485
169 500 3 8 6 17 7 20 1 3 4 12 8 20 3 8 33 96 67 195 33 99 62 186 65 193 2
7 5 14 5 17 0 3 9 29 19 57 11 29 47 134 81 233 34 99 64 187 67 195 3 8 34
98 69 200 34 102 103 303 153 448 l90 262 -27 0 c-38 1 -585 1 -659 0 -54 0
-63 -3 -63 -18 0 -10 -5 -23 -12 -30 -7 -7 -9 -12 -6 -12 4 0 -2 -26 -13 -57
-11 -32 -22 -65 -24 -73 -2 -8 -29 -94 -60 -190 -32 -96 -59 -181 -60 -190 -2
-8 -4 -16 -5 -17 -2 -2 -3 -6 -4 -10 -1 -5 -39 -123 -85 -263 -46 -140 -101
-311 -123 -380 -22 -69 -47 -145 -55 -170 -8 -25 -16 -49 -17 -55 -3 -12 -105
-333 -113 -355 -3 -8 -7 -19 -9 -25 -1 -5 -14 -46 -29 -90 -15 -44 -28 -84
-29 -90 -1 -5 -26 -84 -55 -175 -48 -148 -55 -162 -67 -145 -8 10 -14 24 -14
29 0 10 -74 251 -87 286 -4 8 -7 17 -8 20 -4 20 -90 286 -106 330 -11 30 -22
64 -24 74 -3 11 -17 56 -32 100 -15 45 -28 84 -29 89 -1 4 -2 8 -4 10 -1 1 -3
9 -5 17 -2 14 -117 373 -185 580 -15 47 -53 166 -85 265 -31 99 -59 187 -62
195 -3 8 -8 21 -10 28 -1 6 -5 18 -6 25 -2 6 -7 19 -10 27 -3 8 -20 60 -37
115 -51 162 -46 155 -94 155 -315 4 -638 4 -663 2z"/>
<path d="M9944 6383 c-97 -34 -173 -135 -180 -238 -6 -93 19 -159 83 -222 136
-134 362 -96 443 74 28 58 33 148 13 217 -19 63 -102 149 -159 166 -62 18
-155 20 -200 3z"/>
<path d="M6125 5404 c-293 -58 -505 -278 -543 -564 -13 -101 -3 -226 26 -315
40 -124 128 -249 232 -327 117 -87 242 -129 405 -134 171 -5 278 21 410 100
46 27 194 162 195 177 0 4 15 32 34 62 58 97 84 197 85 327 2 116 -28 257 -61
297 -6 7 -8 13 -4 13 3 0 -8 23 -26 51 -40 66 -125 157 -180 195 -24 16 -46
33 -49 37 -3 5 -12 10 -20 11 -8 2 -39 15 -70 29 -31 14 -70 27 -87 30 -17 3
-36 8 -42 12 -23 14 -234 13 -305 -1z m269 -248 c80 -19 187 -96 233 -169 47
-75 66 -137 68 -232 4 -160 -51 -281 -165 -364 -60 -43 -121 -69 -183 -77 -29
-4 -58 -8 -66 -9 -13 -1 -70 7 -134 20 -42 8 -117 50 -158 87 -56 52 -89 102
-114 175 -20 56 -23 83 -21 158 2 49 5 97 8 105 27 94 64 158 125 215 38 35
123 81 168 89 15 3 30 8 34 11 7 8 163 1 205 -9z"/>
<path d="M13188 5414 c-2 -2 -22 -6 -44 -9 -145 -18 -320 -123 -417 -250 -44
-57 -104 -174 -113 -219 -2 -12 -7 -34 -11 -51 -4 -16 -8 -86 -8 -155 0 -111
4 -135 29 -212 16 -49 33 -88 37 -88 3 0 12 -15 19 -32 13 -33 86 -126 125
-161 91 -80 217 -142 340 -165 67 -13 270 -6 335 11 77 21 182 71 237 112 64
48 161 162 195 230 108 214 93 497 -37 690 -97 144 -204 219 -409 285 -36 11
-269 24 -278 14z m197 -253 c6 -3 18 -7 28 -8 34 -5 124 -54 158 -86 96 -89
138 -192 137 -336 -1 -126 -39 -220 -119 -301 -44 -44 -132 -97 -174 -105 -11
-2 -20 -4 -20 -5 0 -6 -51 -10 -115 -11 -86 -1 -201 35 -250 79 -122 108 -172
219 -165 369 6 120 38 202 110 281 49 54 144 109 213 123 41 8 181 8 197 0z"/>
<path d="M1498 5391 c-1 -3 -2 -300 -3 -658 l-1 -653 90 -2 c50 0 98 -1 106 0
8 1 29 2 46 3 l31 2 1 236 c0 130 1 244 1 254 1 16 20 17 256 17 l256 0 -1
-32 c-1 -18 0 -66 2 -106 2 -39 -1 -72 -5 -72 -5 0 -5 -4 -2 -10 3 -5 6 -34 5
-62 0 -29 0 -69 1 -88 0 -19 1 -42 0 -50 -2 -27 -1 -45 3 -65 2 -11 5 -22 5
-25 1 -3 40 -4 88 -3 49 1 108 2 133 2 l45 1 -1 643 c-1 353 -2 650 -3 659 -1
14 -17 16 -137 15 l-136 -1 4 -28 c3 -16 1 -31 -3 -33 -4 -3 -3 -20 1 -39 4
-19 6 -37 3 -40 -5 -5 -5 -41 0 -169 1 -37 -2 -67 -6 -67 -5 0 -5 -4 -2 -10 3
-5 6 -34 5 -62 0 -29 -1 -68 0 -85 1 -33 0 -33 -47 -34 -141 -2 -457 2 -461 6
-2 2 -5 130 -5 283 l0 280 -134 -1 c-73 0 -134 -3 -135 -6z"/>
<path d="M2790 5371 c-2 -234 1 -1285 4 -1288 2 -2 145 -4 317 -3 173 0 323 1
334 1 145 -2 220 1 225 9 4 7 6 171 1 218 -1 9 -15 11 -47 9 -25 -2 -47 0 -50
4 -2 5 -11 6 -18 3 -23 -9 -166 -9 -166 -1 0 5 -5 5 -11 2 -15 -10 -79 -12
-79 -3 0 4 -7 5 -15 2 -22 -9 -195 -10 -195 -2 0 5 -6 7 -12 5 -10 -1 -13 32
-14 141 -1 78 3 145 8 148 5 3 134 6 288 6 l279 0 0 118 1 118 -41 4 c-22 2
-44 1 -48 -2 -5 -3 -117 -4 -249 -2 l-239 3 1 148 1 149 265 0 c146 0 283 1
305 1 l40 1 -1 113 c-1 61 -2 115 -3 118 -1 3 -199 6 -441 6 l-440 0 0 -26z"/>
<path d="M3835 5392 c-3 -3 -5 -299 -5 -659 l0 -653 53 0 c28 -1 153 0 277 0
124 1 232 1 240 1 8 0 58 0 110 0 52 -1 108 0 124 2 l29 2 -1 92 c0 50 -3 96
-6 102 -4 5 -2 12 4 16 21 13 -2 23 -53 23 -28 0 -56 1 -62 2 -5 1 -13 1 -17
0 -5 -1 -26 -2 -48 -2 -22 0 -43 1 -47 2 -5 1 -12 1 -18 0 -23 -6 -61 -5 -75
1 -8 4 -24 3 -35 -1 -11 -4 -28 -3 -37 2 -10 5 -18 5 -18 1 0 -9 -122 -9 -136
0 -5 3 -9 227 -9 540 l0 534 -132 0 c-73 0 -135 -3 -138 -5z"/>
<path d="M4596 5391 c-6 -12 -1 -220 6 -226 4 -4 78 -8 165 -9 l158 -1 2 -534
c2 -294 5 -536 7 -538 4 -4 77 -5 226 -3 l45 0 0 537 0 538 158 2 c87 1 161 4
163 6 5 4 7 121 5 203 l-1 31 -465 0 c-256 0 -467 -3 -469 -6z"/>
<path d="M7169 5391 c-4 -30 -3 -1295 1 -1302 6 -8 43 -10 180 -8 36 0 71 -1
79 -3 10 -2 13 70 12 395 0 218 2 397 4 397 1 0 67 -87 145 -192 138 -186 231
-312 248 -333 4 -5 25 -35 47 -65 22 -30 42 -57 45 -60 3 -3 14 -18 23 -33 10
-16 27 -38 37 -50 11 -12 25 -30 32 -40 12 -16 29 -18 112 -19 53 0 101 3 104
7 4 4 7 300 7 659 l1 653 -138 0 -138 0 0 -390 0 -390 -82 108 c-46 58 -87
114 -93 123 -5 10 -13 19 -16 22 -8 8 -193 249 -204 268 -5 9 -18 25 -28 36
-10 12 -39 50 -65 86 -25 36 -52 71 -60 79 -7 8 -20 24 -28 36 -13 20 -22 22
-119 22 -58 1 -105 -2 -106 -6z"/>
<path d="M8799 5391 c-1 -3 -2 -297 -2 -654 -2 -621 -1 -647 16 -653 11 -3
101 -5 200 -5 100 1 188 2 195 2 6 0 47 -1 90 -1 157 -2 256 16 344 62 128 68
192 177 199 343 4 102 -31 196 -98 264 l-43 43 24 33 c39 51 65 139 60 209 -4
68 -5 72 -24 135 -15 47 -111 161 -136 161 -8 0 -14 4 -14 9 0 4 -33 19 -72
32 -70 22 -86 23 -405 25 -183 1 -333 -1 -334 -5z m634 -234 c15 -5 39 -24 54
-43 22 -30 25 -41 21 -89 -9 -107 -45 -123 -268 -121 l-165 1 -2 131 -2 132
167 -1 c92 0 180 -4 195 -10z m17 -502 c75 -24 120 -92 115 -175 -3 -57 -25
-98 -68 -127 -37 -26 -114 -45 -123 -32 -3 5 -10 7 -16 3 -14 -9 -208 -11
-208 -2 0 4 -10 4 -23 -1 -14 -5 -30 -5 -40 0 -14 8 -16 31 -16 174 -1 106 3
165 10 167 21 7 345 1 369 -7z"/>
<path d="M10016 4744 c1 -360 4 -657 6 -660 7 -6 259 -6 265 0 2 2 5 110 5
239 l1 235 98 -1 c94 0 98 -1 111 -26 7 -14 32 -59 55 -99 24 -41 43 -75 43
-77 0 -1 25 -46 55 -100 30 -53 55 -101 55 -106 0 -5 3 -9 8 -9 4 0 13 -13 20
-30 15 -33 7 -31 187 -31 30 0 73 0 95 0 l39 1 -22 43 c-13 23 -30 53 -39 67
-22 34 -61 105 -95 168 -15 28 -31 52 -35 52 -4 0 -8 9 -8 20 0 11 -4 20 -10
20 -5 0 -10 6 -10 13 0 7 -16 36 -35 65 -20 28 -33 52 -29 52 4 0 1 6 -5 14
-9 11 -5 16 18 26 42 17 127 102 152 153 12 23 28 63 34 88 12 45 13 191 2
237 -10 41 -56 126 -84 158 -28 31 -143 110 -143 98 0 -4 -6 -2 -12 3 -37 29
-120 37 -418 39 l-305 2 1 -654z m579 402 c55 -20 104 -71 112 -115 9 -52 10
-92 2 -97 -5 -3 -9 -14 -9 -24 0 -30 -51 -81 -101 -99 -32 -12 -78 -16 -174
-16 l-130 0 -2 170 c-1 94 -1 175 2 181 5 15 259 15 300 0z"/>
<path d="M11199 5386 c-1 -6 -2 -302 -2 -657 -1 -424 1 -646 8 -647 32 -4 257
-3 261 1 4 3 8 1228 4 1303 0 15 -270 16 -271 0z"/>
<path d="M11612 5386 c-7 -12 -5 -216 3 -224 3 -3 77 -5 165 -4 l160 1 1 -27
c0 -15 0 -255 0 -534 0 -279 4 -510 8 -512 9 -6 105 -7 201 -4 l65 3 0 535 1
535 157 1 c87 1 161 5 165 9 4 3 7 57 7 119 l0 113 -463 0 c-326 0 -465 -3
-470 -11z"/>
</g>
</svg>
