<svg width="63" height="63" viewBox="0 0 63 63" fill="none" xmlns="http://www.w3.org/2000/svg">
<g clip-path="url(#clip0_1197_1488)">
<path d="M31.2 0C13.962 0 0 13.962 0 31.2C0 45.006 8.931 56.667 21.333 60.801C22.893 61.074 23.478 60.138 23.478 59.319C23.478 58.578 23.439 56.121 23.439 53.508C15.6 54.951 13.572 51.597 12.948 49.842C12.597 48.945 11.076 46.176 9.75 45.435C8.658 44.85 7.098 43.407 9.711 43.368C12.168 43.329 13.923 45.63 14.508 46.566C17.316 51.285 21.801 49.959 23.595 49.14C23.868 47.112 24.687 45.747 25.584 44.967C18.642 44.187 11.388 41.496 11.388 29.562C11.388 26.169 12.597 23.361 14.586 21.177C14.274 20.397 13.182 17.199 14.898 12.909C14.898 12.909 17.511 12.09 23.478 16.107C25.974 15.405 28.626 15.054 31.278 15.054C33.93 15.054 36.582 15.405 39.078 16.107C45.045 12.051 47.658 12.909 47.658 12.909C49.374 17.199 48.282 20.397 47.97 21.177C49.959 23.361 51.168 26.13 51.168 29.562C51.168 41.535 43.875 44.187 36.933 44.967C38.064 45.942 39.039 47.814 39.039 50.739C39.039 54.912 39 58.266 39 59.319C39 60.138 39.585 61.113 41.145 60.801C47.3391 58.7106 52.7215 54.73 56.5345 49.4199C60.3475 44.1097 62.3989 37.7373 62.4 31.2C62.4 13.962 48.438 0 31.2 0Z" fill="black"/>
</g>
<defs>
<clipPath id="clip0_1197_1488">
<rect width="62.4" height="62.4" fill="white"/>
</clipPath>
</defs>
</svg>
