<svg width="62" height="63" viewBox="0 0 62 63" fill="none" xmlns="http://www.w3.org/2000/svg">
<ellipse cx="30.9104" cy="31.2" rx="30.9104" ry="31.2" fill="black"/>
<ellipse cx="30.9104" cy="31.2" rx="30.9104" ry="31.2" fill="black"/>
<path d="M25.2957 39.604V26.0656H21.0848V39.604H25.2957ZM23.1676 24.2544C24.526 24.2544 25.6127 23.1225 25.6127 21.7641C25.6127 20.451 24.526 19.3643 23.1676 19.3643C21.8545 19.3643 20.7678 20.451 20.7678 21.7641C20.7678 23.1225 21.8545 24.2544 23.1676 24.2544ZM41.0075 39.604H41.0528V32.1782C41.0528 28.5559 40.2377 25.7486 35.9815 25.7486C33.944 25.7486 32.5856 26.8806 31.997 27.922H31.9517V26.0656H27.9219V39.604H32.1328V32.9027C32.1328 31.1368 32.4498 29.4615 34.6232 29.4615C36.7966 29.4615 36.8418 31.4538 36.8418 33.0385V39.604H41.0075Z" fill="white"/>
</svg>
