<svg width="62" height="63" viewBox="0 0 62 63" fill="none" xmlns="http://www.w3.org/2000/svg">
<ellipse cx="30.9104" cy="31.2" rx="30.9104" ry="31.2" fill="black"/>
<g clip-path="url(#clip0_1197_1484)">
<path d="M31.3631 13.1826C23.3623 13.1826 15.4551 18.523 15.4551 27.166C15.4551 32.6626 18.5431 35.7856 20.4146 35.7856C21.1866 35.7856 21.6311 33.6307 21.6311 33.0217C21.6311 32.2956 19.783 30.7497 19.783 27.7281C19.783 21.4508 24.5554 17.0005 30.7314 17.0005C36.0419 17.0005 39.9721 20.022 39.9721 25.5732C39.9721 29.7191 38.3111 37.4955 32.9305 37.4955C30.9888 37.4955 29.3278 36.0901 29.3278 34.0757C29.3278 31.1245 31.3865 28.2669 31.3865 25.2219C31.3865 20.0533 24.0641 20.9902 24.0641 27.2363C24.0641 28.5479 24.2279 30.0002 24.8127 31.1947C23.7366 35.8325 21.5375 42.7422 21.5375 47.5205C21.5375 48.9961 21.7481 50.4483 21.8885 51.924C22.1536 52.2206 22.021 52.1894 22.4265 52.0411C26.3567 46.6538 26.2164 45.5998 27.9943 38.5495C28.9535 40.3765 31.4332 41.3602 33.3984 41.3602C41.6799 41.3602 45.3995 33.2794 45.3995 25.9949C45.3995 18.2419 38.7088 13.1826 31.3631 13.1826Z" fill="white"/>
</g>
<defs>
<clipPath id="clip0_1197_1484">
<rect width="29.9444" height="39.975" fill="white" transform="translate(15.4551 12.675)"/>
</clipPath>
</defs>
</svg>
